<svg width="16" height="16" viewBox="0 0 16 16" fill="none" xmlns="http://www.w3.org/2000/svg">
<g clip-path="url(#clip0_10_63)">
<path d="M15.344 0L15.2 0.048L10.896 0.664C10.7398 0.681571 10.5964 0.758988 10.496 0.88C10.344 1.08 10.176 1.264 10.024 1.456C8.168 3.696 6.30401 5.936 4.42401 8.176C4.36801 8.24 4.32801 8.288 4.21601 8.248C3.98469 8.1603 3.73357 8.13854 3.49062 8.18515C3.24767 8.23176 3.02243 8.34492 2.84001 8.512C2.60001 8.728 2.37601 8.968 2.15201 9.192C2.09537 9.23695 2.04961 9.29411 2.01816 9.35921C1.98671 9.42432 1.97037 9.49569 1.97037 9.568C1.97037 9.64031 1.98671 9.71168 2.01816 9.77679C2.04961 9.84189 2.09537 9.89905 2.15201 9.944L3.00801 10.792C3.08801 10.872 3.09601 10.904 3.00801 10.992C2.57601 11.424 2.13601 11.856 1.71201 12.296C1.67477 12.3347 1.63 12.3652 1.58046 12.3859C1.53092 12.4065 1.47767 12.4168 1.42401 12.416C1.06299 12.4029 0.71131 12.5323 0.444887 12.7763C0.178465 13.0203 0.0186718 13.3592 6.1132e-06 13.72C-0.0279968 14.0447 -0.0279968 14.3713 6.11506e-06 14.696C0.0112622 14.8996 0.0681547 15.0981 0.166474 15.2767C0.264793 15.4553 0.402022 15.6096 0.568006 15.728C0.767755 15.8643 0.994012 15.957 1.23201 16H2.35201C2.50216 15.9668 2.64932 15.9213 2.79201 15.864C3.0375 15.7434 3.2433 15.5549 3.38507 15.321C3.52684 15.0871 3.59865 14.8175 3.59201 14.544C3.59201 14.472 3.59201 14.408 3.59201 14.352L5.06401 12.872L6.04001 13.856C6.08422 13.9043 6.138 13.9428 6.19791 13.9692C6.25782 13.9955 6.32255 14.0091 6.38801 14.0091C6.45346 14.0091 6.5182 13.9955 6.57811 13.9692C6.63802 13.9428 6.69179 13.9043 6.73601 13.856C6.96001 13.64 7.17601 13.424 7.38401 13.2C7.5738 13.0151 7.70583 12.7791 7.76406 12.5207C7.82228 12.2622 7.8042 11.9924 7.71201 11.744C7.69747 11.713 7.69517 11.6777 7.70555 11.645C7.71593 11.6124 7.73823 11.5849 7.76801 11.568L9.23201 10.4L15.128 5.512C15.1862 5.4683 15.2346 5.41305 15.2704 5.34972C15.3062 5.2864 15.3286 5.21636 15.336 5.144C15.512 3.952 15.672 2.744 15.848 1.568C15.8785 1.25306 15.9293 0.940408 16 0.632V0.384C15.856 0.056 15.712 0 15.344 0ZM2.62401 14.752C2.59758 14.8435 2.54169 14.9236 2.46502 14.98C2.38834 15.0365 2.29518 15.066 2.20001 15.064H1.40001C1.27834 15.0619 1.16236 15.0121 1.07707 14.9253C0.991774 14.8385 0.943988 14.7217 0.944006 14.6C0.944006 14.336 0.944006 14.072 0.944006 13.8C0.944006 13.528 1.23201 13.296 1.58401 13.344C1.62436 13.3587 1.65832 13.387 1.68001 13.424C1.96001 13.696 2.22401 13.984 2.48001 14.224C2.56381 14.2797 2.62458 14.3639 2.65106 14.461C2.67754 14.5581 2.66792 14.6615 2.62401 14.752ZM4.39201 12.28L3.20001 13.48L3.13601 13.536C3.11081 13.5189 3.08909 13.4972 3.07201 13.472C2.89601 13.296 2.72001 13.12 2.53601 12.952C2.48001 12.896 2.48801 12.864 2.53601 12.816L3.72801 11.624C3.79201 11.56 3.82401 11.576 3.87201 11.624L4.39201 12.136C4.43201 12.192 4.45601 12.224 4.39201 12.28ZM6.74401 12.576C6.64801 12.68 6.55201 12.832 6.44001 12.848C6.32801 12.864 6.24001 12.688 6.15201 12.592L3.24801 9.688C3.13601 9.584 3.14401 9.528 3.24801 9.44C3.32654 9.37212 3.40132 9.30002 3.47201 9.224C3.55786 9.1462 3.66825 9.10092 3.78401 9.096C3.91997 9.1017 4.04867 9.1589 4.14401 9.256L6.74401 11.864C6.79738 11.9067 6.84046 11.9609 6.87007 12.0225C6.89968 12.0841 6.91505 12.1516 6.91505 12.22C6.91505 12.2884 6.89968 12.3559 6.87007 12.4175C6.84046 12.4791 6.79738 12.5333 6.74401 12.576ZM14.968 1.152L14.44 4.8C14.4379 4.83036 14.4288 4.85984 14.4136 4.88618C14.3983 4.91252 14.3773 4.93503 14.352 4.952L7.24001 10.832C7.16001 10.904 7.11201 10.92 7.03201 10.832C6.95201 10.744 6.69601 10.488 6.51201 10.32C6.32801 10.152 6.45601 10.224 6.51201 10.16L7.24001 9.432L11.808 4.864C11.8887 4.803 11.9498 4.71981 11.9839 4.62461C12.018 4.52941 12.0236 4.42634 12 4.328C11.972 4.23917 11.9182 4.16062 11.8456 4.10225C11.773 4.04389 11.6848 4.00831 11.592 4C11.5136 3.99935 11.4359 4.01543 11.3642 4.04716C11.2924 4.07889 11.2283 4.12554 11.176 4.184L9.32001 6.024L5.88801 9.464C5.80001 9.552 5.75201 9.56 5.66401 9.464C5.51693 9.29422 5.35928 9.13391 5.19201 8.984C5.11201 8.912 5.09601 8.856 5.19201 8.76L9.04801 4.12L11.072 1.672C11.1261 1.62705 11.1937 1.60168 11.264 1.6L14.856 1.08C14.96 1.024 14.976 1.056 14.968 1.152Z" fill="#DDDCD9"/>
</g>
<defs>
<clipPath id="clip0_10_63">
<rect width="16" height="16" fill="white"/>
</clipPath>
</defs>
</svg>
